<svg xmlns="http://www.w3.org/2000/svg" xmlns:xlink="http://www.w3.org/1999/xlink" width="200" zoomAndPan="magnify" viewBox="0 0 150 33.749998" height="45" preserveAspectRatio="xMidYMid meet" version="1.0"><defs><g/><clipPath id="0c3cdc359a"><path d="M 9 6 L 33 6 L 33 29.671875 L 9 29.671875 Z M 9 6 " clip-rule="nonzero"/></clipPath><clipPath id="c4b530e55e"><path d="M 20 24 L 26 24 L 26 29.671875 L 20 29.671875 Z M 20 24 " clip-rule="nonzero"/></clipPath><clipPath id="fad9c9e7b8"><path d="M 11 24 L 17 24 L 17 29.671875 L 11 29.671875 Z M 11 24 " clip-rule="nonzero"/></clipPath><clipPath id="5ab97149ec"><path d="M 9 12 L 28 12 L 28 29.671875 L 9 29.671875 Z M 9 12 " clip-rule="nonzero"/></clipPath><clipPath id="44325bcf91"><path d="M 29.925781 22.5 L 32.835938 22.5 L 32.835938 26.039062 L 29.925781 26.039062 Z M 29.925781 22.5 " clip-rule="nonzero"/></clipPath><clipPath id="d6a1de7b5b"><path d="M 24 28 L 29 28 L 29 29.671875 L 24 29.671875 Z M 24 28 " clip-rule="nonzero"/></clipPath><clipPath id="467938e187"><path d="M 21 28 L 25 28 L 25 29.671875 L 21 29.671875 Z M 21 28 " clip-rule="nonzero"/></clipPath><clipPath id="9650911fd7"><path d="M 20 26 L 22 26 L 22 29.671875 L 20 29.671875 Z M 20 26 " clip-rule="nonzero"/></clipPath><clipPath id="ca09941c83"><path d="M 11 27 L 14 27 L 14 29.671875 L 11 29.671875 Z M 11 27 " clip-rule="nonzero"/></clipPath><clipPath id="4855e7b165"><path d="M 14 26 L 17 26 L 17 29.671875 L 14 29.671875 Z M 14 26 " clip-rule="nonzero"/></clipPath><clipPath id="e384be6ba6"><path d="M 16 28 L 21 28 L 21 29.671875 L 16 29.671875 Z M 16 28 " clip-rule="nonzero"/></clipPath><clipPath id="32800967a7"><path d="M 8.65625 13 L 11 13 L 11 17 L 8.65625 17 Z M 8.65625 13 " clip-rule="nonzero"/></clipPath></defs><path fill="#fefefe" d="M 18.976562 4.082031 C 19.601562 4.289062 20.359375 5.457031 20.628906 6.410156 C 20.734375 6.785156 20.597656 6.914062 20.230469 6.921875 C 17.71875 6.972656 17.542969 6.984375 17.140625 6.953125 C 16.96875 6.9375 16.359375 6.863281 16.226562 6.753906 C 16 6.566406 17.570312 3.613281 18.976562 4.082031 " fill-opacity="1" fill-rule="nonzero"/><path fill="#fefefe" d="M 11.875 20.578125 C 11.757812 21.210938 11.71875 21.855469 11.753906 22.425781 C 11.773438 22.730469 11.808594 23.125 12.113281 23.203125 C 12.515625 23.300781 13.675781 22.449219 14.21875 20.953125 L 11.875 20.578125 " fill-opacity="1" fill-rule="nonzero"/><path fill="#fefefe" d="M 24.503906 19.933594 L 22.945312 21.152344 C 23.355469 21.710938 23.523438 21.871094 23.785156 22.101562 C 23.933594 22.234375 24.210938 22.625 24.664062 22.496094 C 25.144531 22.359375 25.242188 20.941406 24.503906 19.933594 " fill-opacity="1" fill-rule="nonzero"/><path fill="#fefefe" d="M 24.222656 23.957031 C 24.171875 23.367188 23.808594 22.890625 23.476562 22.742188 C 23.171875 22.605469 22.578125 22.613281 22.304688 23.347656 C 22.238281 23.527344 22.195312 23.726562 22.25 23.910156 C 22.425781 24.53125 23.308594 24.46875 23.722656 24.488281 C 24.054688 24.5 24.257812 24.386719 24.222656 23.957031 " fill-opacity="1" fill-rule="nonzero"/><path fill="#fefefe" d="M 27.03125 25.292969 C 27.007812 25.363281 26.972656 25.441406 26.902344 25.453125 C 26.855469 25.460938 26.859375 25.457031 26.359375 25.269531 C 26.023438 25.144531 25.675781 25.007812 25.496094 24.691406 C 25.410156 24.535156 25.402344 24.46875 25.515625 24.332031 C 26.171875 23.546875 27.605469 23.554688 27.03125 25.292969 " fill-opacity="1" fill-rule="nonzero"/><path fill="#fefefe" d="M 29.183594 25.46875 C 29.414062 25.746094 29.574219 26.222656 29.464844 26.3125 C 29.390625 26.371094 28.820312 26.363281 28.363281 26.238281 C 28.199219 26.191406 28.195312 26.140625 28.203125 25.972656 C 28.25 25.25 28.816406 25.015625 29.183594 25.46875 " fill-opacity="1" fill-rule="nonzero"/><path fill="#fefefe" d="M 30.535156 25.015625 C 30.453125 24.824219 30.480469 24.570312 30.65625 24.457031 C 30.773438 24.378906 30.925781 24.386719 31.066406 24.398438 C 31.484375 24.429688 31.585938 24.628906 31.417969 24.953125 C 31.355469 25.078125 31.117188 25.445312 30.992188 25.464844 C 30.828125 25.484375 30.59375 25.144531 30.535156 25.015625 " fill-opacity="1" fill-rule="nonzero"/><path fill="#fefefe" d="M 30.726562 22.929688 C 30.769531 22.878906 30.820312 22.824219 30.886719 22.828125 C 31.003906 22.832031 31.214844 23.097656 31.1875 23.210938 C 31.109375 23.507812 30.300781 23.433594 30.726562 22.929688 " fill-opacity="1" fill-rule="nonzero"/><path fill="#eb5e5e" d="M 18.976562 4.082031 C 19.601562 4.289062 20.359375 5.457031 20.628906 6.410156 C 20.734375 6.785156 20.597656 6.914062 20.230469 6.921875 C 17.71875 6.972656 17.542969 6.984375 17.140625 6.953125 C 16.96875 6.9375 16.359375 6.863281 16.226562 6.753906 C 16 6.566406 17.570312 3.613281 18.976562 4.082031 " fill-opacity="1" fill-rule="nonzero"/><path fill="#eb5e5e" d="M 11.875 20.578125 C 11.757812 21.210938 11.71875 21.855469 11.753906 22.425781 C 11.773438 22.730469 11.808594 23.125 12.113281 23.203125 C 12.515625 23.300781 13.675781 22.449219 14.21875 20.953125 L 11.875 20.578125 " fill-opacity="1" fill-rule="nonzero"/><path fill="#eb5e5e" d="M 24.503906 19.933594 L 22.945312 21.152344 C 23.355469 21.710938 23.523438 21.871094 23.785156 22.101562 C 23.933594 22.234375 24.210938 22.625 24.664062 22.496094 C 25.144531 22.359375 25.242188 20.941406 24.503906 19.933594 " fill-opacity="1" fill-rule="nonzero"/><path fill="#eb5e5e" d="M 24.222656 23.957031 C 24.171875 23.367188 23.808594 22.890625 23.476562 22.742188 C 23.171875 22.605469 22.578125 22.613281 22.304688 23.347656 C 22.238281 23.527344 22.195312 23.726562 22.25 23.910156 C 22.425781 24.53125 23.308594 24.46875 23.722656 24.488281 C 24.054688 24.5 24.257812 24.386719 24.222656 23.957031 " fill-opacity="1" fill-rule="nonzero"/><path fill="#eb5e5e" d="M 25.515625 24.332031 C 25.402344 24.46875 25.410156 24.535156 25.496094 24.691406 C 25.675781 25.007812 26.023438 25.144531 26.359375 25.269531 C 26.859375 25.457031 26.855469 25.460938 26.902344 25.453125 C 26.972656 25.441406 27.007812 25.363281 27.03125 25.292969 C 27.605469 23.554688 26.171875 23.546875 25.515625 24.332031 " fill-opacity="1" fill-rule="nonzero"/><path fill="#eb5e5e" d="M 28.203125 25.972656 C 28.195312 26.140625 28.199219 26.191406 28.363281 26.238281 C 28.820312 26.363281 29.390625 26.371094 29.464844 26.3125 C 29.574219 26.222656 29.414062 25.746094 29.183594 25.46875 C 28.816406 25.015625 28.25 25.25 28.203125 25.972656 " fill-opacity="1" fill-rule="nonzero"/><path fill="#eb5e5e" d="M 30.992188 25.464844 C 31.117188 25.445312 31.355469 25.078125 31.417969 24.953125 C 31.585938 24.628906 31.484375 24.429688 31.066406 24.398438 C 30.925781 24.386719 30.773438 24.378906 30.65625 24.457031 C 30.480469 24.570312 30.453125 24.824219 30.535156 25.015625 C 30.59375 25.144531 30.828125 25.484375 30.992188 25.464844 " fill-opacity="1" fill-rule="nonzero"/><path fill="#eb5e5e" d="M 31.1875 23.210938 C 31.214844 23.097656 31.003906 22.832031 30.886719 22.828125 C 30.820312 22.824219 30.769531 22.878906 30.726562 22.929688 C 30.300781 23.433594 31.109375 23.507812 31.1875 23.210938 " fill-opacity="1" fill-rule="nonzero"/><g clip-path="url(#0c3cdc359a)"><path fill="#fefefe" d="M 32.789062 24.945312 C 32.714844 23.992188 32.242188 23.289062 31.679688 22.9375 C 31.121094 22.585938 30.445312 22.441406 29.691406 22.660156 C 30.554688 22.828125 30.71875 22.960938 30.71875 22.960938 C 30.71875 22.960938 31.496094 23.457031 31.414062 24.21875 C 31.328125 24.984375 30.859375 25.464844 30.53125 25.683594 C 29.980469 26.046875 29.230469 26.25 28.59375 26.132812 C 27.957031 26.011719 27.175781 25.367188 26.851562 25.140625 C 26.527344 24.914062 25.890625 24.371094 25.015625 24.070312 C 24.472656 23.882812 23.382812 23.6875 22.695312 24.183594 C 22.507812 23.273438 21.769531 22.433594 21.203125 21.941406 C 21.84375 21.792969 23.914062 21.296875 24.644531 20.53125 C 25.371094 19.765625 25.625 18.90625 25.722656 17.773438 C 25.820312 16.644531 25.78125 16.035156 25.78125 16.035156 C 25.78125 16.035156 25.988281 16.042969 26.296875 15.824219 C 26.605469 15.605469 27.046875 14.878906 27.035156 14.414062 C 27.027344 13.953125 26.921875 13.28125 26.320312 12.925781 C 25.761719 12.59375 25.3125 12.589844 24.894531 12.71875 C 25.082031 12.199219 25.363281 11.289062 25.445312 10.253906 C 25.542969 8.941406 24.859375 7.992188 23.921875 7.394531 C 22.988281 6.796875 21.078125 6.289062 18.550781 6.289062 C 16.023438 6.289062 14.203125 6.925781 13.03125 7.574219 C 12.125 8.074219 10.972656 9.160156 10.835938 10.625 C 10.722656 11.886719 11.28125 12.929688 11.621094 13.4375 C 11.519531 13.363281 11.40625 13.292969 11.277344 13.234375 C 10.535156 12.902344 9.511719 13.292969 9.136719 14.058594 C 8.761719 14.828125 9.300781 16.238281 10.476562 16.40625 C 10.304688 17.132812 10.621094 18.382812 11.011719 19.300781 C 11.402344 20.214844 11.914062 21.097656 12.730469 21.542969 C 13.546875 21.988281 14.578125 22.28125 15.273438 22.308594 C 14.792969 22.757812 13.964844 23.84375 14.164062 25.09375 C 13.660156 24.917969 12.492188 24.570312 11.546875 25.582031 C 10.601562 26.59375 11.074219 27.730469 11.566406 28.410156 C 12.058594 29.089844 13.257812 29.613281 14.441406 29.617188 C 15.566406 29.617188 15.84375 29.203125 15.960938 29.027344 C 16.117188 29.113281 17.132812 29.367188 18.269531 29.367188 C 19.402344 29.367188 20.328125 29.125 20.710938 28.957031 C 20.996094 29.257812 21.324219 29.617188 22.519531 29.617188 C 23.375 29.617188 24.015625 29.136719 24.316406 28.859375 C 24.753906 28.925781 26.277344 29.101562 27.652344 28.941406 C 29.027344 28.777344 30.359375 28.546875 31.242188 27.730469 C 32.128906 26.917969 32.867188 25.902344 32.789062 24.945312 " fill-opacity="1" fill-rule="nonzero"/><path fill="#785ef0" d="M 32.789062 24.945312 C 32.714844 23.992188 32.242188 23.289062 31.679688 22.9375 C 31.121094 22.585938 30.445312 22.441406 29.691406 22.660156 C 30.554688 22.828125 30.71875 22.960938 30.71875 22.960938 C 30.71875 22.960938 31.496094 23.457031 31.414062 24.21875 C 31.328125 24.984375 30.859375 25.464844 30.53125 25.683594 C 29.980469 26.046875 29.230469 26.25 28.59375 26.132812 C 27.957031 26.011719 27.175781 25.367188 26.851562 25.140625 C 26.527344 24.914062 25.890625 24.371094 25.015625 24.070312 C 24.472656 23.882812 23.382812 23.6875 22.695312 24.183594 C 22.507812 23.273438 21.769531 22.433594 21.203125 21.941406 C 21.84375 21.792969 23.914062 21.296875 24.644531 20.53125 C 25.371094 19.765625 25.625 18.90625 25.722656 17.773438 C 25.820312 16.644531 25.78125 16.035156 25.78125 16.035156 C 25.78125 16.035156 25.988281 16.042969 26.296875 15.824219 C 26.605469 15.605469 27.046875 14.878906 27.035156 14.414062 C 27.027344 13.953125 26.921875 13.28125 26.320312 12.925781 C 25.761719 12.59375 25.3125 12.589844 24.894531 12.71875 C 25.082031 12.199219 25.363281 11.289062 25.445312 10.253906 C 25.542969 8.941406 24.859375 7.992188 23.921875 7.394531 C 22.988281 6.796875 21.078125 6.289062 18.550781 6.289062 C 16.023438 6.289062 14.203125 6.925781 13.03125 7.574219 C 12.125 8.074219 10.972656 9.160156 10.835938 10.625 C 10.722656 11.886719 11.28125 12.929688 11.621094 13.4375 C 11.519531 13.363281 11.40625 13.292969 11.277344 13.234375 C 10.535156 12.902344 9.511719 13.292969 9.136719 14.058594 C 8.761719 14.828125 9.300781 16.238281 10.476562 16.40625 C 10.304688 17.132812 10.621094 18.382812 11.011719 19.300781 C 11.402344 20.214844 11.914062 21.097656 12.730469 21.542969 C 13.546875 21.988281 14.578125 22.28125 15.273438 22.308594 C 14.792969 22.757812 13.964844 23.84375 14.164062 25.09375 C 13.660156 24.917969 12.492188 24.570312 11.546875 25.582031 C 10.601562 26.59375 11.074219 27.730469 11.566406 28.410156 C 12.058594 29.089844 13.257812 29.613281 14.441406 29.617188 C 15.566406 29.617188 15.84375 29.203125 15.960938 29.027344 C 16.117188 29.113281 17.132812 29.367188 18.269531 29.367188 C 19.402344 29.367188 20.328125 29.125 20.710938 28.957031 C 20.996094 29.257812 21.324219 29.617188 22.519531 29.617188 C 23.375 29.617188 24.015625 29.136719 24.316406 28.859375 C 24.753906 28.925781 26.277344 29.101562 27.652344 28.941406 C 29.027344 28.777344 30.359375 28.546875 31.242188 27.730469 C 32.128906 26.917969 32.867188 25.902344 32.789062 24.945312 " fill-opacity="1" fill-rule="nonzero"/></g><g clip-path="url(#c4b530e55e)"><path fill="#fefefe" d="M 24.804688 25.839844 C 25.121094 26.175781 25.257812 26.691406 25.207031 27.386719 C 25.152344 28.082031 24.4375 28.75 24.351562 28.847656 C 24.347656 28.851562 24.339844 28.855469 24.335938 28.863281 C 24.328125 28.863281 24.324219 28.863281 24.316406 28.859375 C 24.015625 29.136719 23.375 29.617188 22.519531 29.617188 C 21.324219 29.617188 20.996094 29.257812 20.710938 28.957031 C 20.699219 28.960938 20.6875 28.964844 20.675781 28.96875 C 20.507812 28.789062 20.300781 28.460938 20.273438 27.953125 C 20.242188 27.390625 20.453125 26.992188 20.574219 26.839844 C 21.023438 26.804688 21.480469 26.671875 22.089844 26.171875 C 22.699219 25.671875 22.722656 24.789062 22.722656 24.789062 C 23.914062 24.886719 24.488281 25.503906 24.804688 25.839844 " fill-opacity="1" fill-rule="nonzero"/></g><path fill="#fefefe" d="M 26.296875 15.824219 C 25.988281 16.042969 25.78125 16.035156 25.78125 16.035156 C 25.78125 16.035156 25.78125 16.039062 25.78125 16.046875 C 25.78125 16.0625 25.785156 16.089844 25.785156 16.128906 C 25.785156 16.144531 25.785156 16.164062 25.785156 16.183594 C 25.785156 16.183594 25.785156 16.183594 25.785156 16.1875 C 25.792969 16.433594 25.789062 16.972656 25.722656 17.773438 C 25.625 18.90625 25.371094 19.765625 24.644531 20.53125 C 23.914062 21.296875 21.84375 21.792969 21.203125 21.941406 C 21.210938 21.953125 21.222656 21.960938 21.234375 21.972656 C 19.75 22.289062 18.160156 22.375 16.507812 22.375 C 16.089844 22.375 15.671875 22.355469 15.265625 22.320312 C 15.269531 22.316406 15.269531 22.3125 15.273438 22.308594 C 14.578125 22.28125 13.546875 21.988281 12.730469 21.542969 C 11.914062 21.097656 11.402344 20.214844 11.011719 19.300781 C 10.621094 18.382812 10.304688 17.132812 10.476562 16.40625 C 10.472656 16.402344 10.46875 16.402344 10.464844 16.402344 C 9.296875 16.226562 8.761719 14.824219 9.136719 14.058594 C 9.511719 13.292969 10.535156 12.902344 11.277344 13.234375 C 11.40625 13.292969 11.519531 13.363281 11.621094 13.4375 C 11.609375 13.417969 11.59375 13.398438 11.578125 13.375 C 11.875 13.570312 12.121094 14.023438 12.238281 14.363281 C 12.414062 14.265625 12.589844 14.175781 12.757812 14.101562 C 13.488281 13.757812 14.941406 13.089844 18.070312 12.996094 C 21.144531 12.90625 22.535156 13.304688 23.789062 13.820312 C 23.847656 13.535156 23.9375 13.308594 24.214844 13.089844 C 24.480469 12.886719 24.941406 12.625 25.472656 12.644531 C 25.730469 12.65625 26.007812 12.742188 26.320312 12.925781 C 26.921875 13.28125 27.027344 13.953125 27.035156 14.414062 C 27.046875 14.878906 26.605469 15.605469 26.296875 15.824219 " fill-opacity="1" fill-rule="nonzero"/><g clip-path="url(#fad9c9e7b8)"><path fill="#fefefe" d="M 15.136719 26.484375 C 14.382812 26.058594 14.183594 25.308594 14.128906 25.082031 C 13.609375 24.902344 12.46875 24.59375 11.546875 25.582031 C 10.601562 26.59375 11.074219 27.730469 11.566406 28.410156 C 12.058594 29.089844 13.257812 29.613281 14.441406 29.617188 C 15.566406 29.617188 15.84375 29.203125 15.960938 29.027344 C 15.96875 29.03125 15.972656 29.03125 15.976562 29.035156 C 16.0625 28.898438 16.148438 28.71875 16.234375 28.46875 C 16.488281 27.734375 16.082031 26.984375 15.894531 26.78125 C 15.753906 26.710938 15.625 26.757812 15.136719 26.484375 " fill-opacity="1" fill-rule="nonzero"/></g><g clip-path="url(#5ab97149ec)"><path fill="#ffe0cc" d="M 15.136719 26.484375 C 14.382812 26.058594 14.183594 25.308594 14.128906 25.082031 C 13.609375 24.902344 12.46875 24.59375 11.546875 25.582031 C 10.601562 26.59375 11.074219 27.730469 11.566406 28.410156 C 12.058594 29.089844 13.257812 29.613281 14.441406 29.617188 C 15.566406 29.617188 15.84375 29.203125 15.960938 29.027344 C 15.96875 29.03125 15.972656 29.03125 15.976562 29.035156 C 16.0625 28.898438 16.148438 28.71875 16.234375 28.46875 C 16.488281 27.734375 16.082031 26.984375 15.894531 26.78125 C 15.753906 26.710938 15.625 26.757812 15.136719 26.484375 Z M 26.296875 15.824219 C 25.988281 16.042969 25.78125 16.035156 25.78125 16.035156 C 25.78125 16.035156 25.78125 16.039062 25.78125 16.046875 C 25.78125 16.0625 25.785156 16.089844 25.785156 16.128906 C 25.785156 16.144531 25.785156 16.164062 25.785156 16.183594 C 25.785156 16.183594 25.785156 16.183594 25.785156 16.1875 C 25.792969 16.433594 25.789062 16.972656 25.722656 17.773438 C 25.625 18.90625 25.371094 19.765625 24.644531 20.53125 C 23.914062 21.296875 21.84375 21.792969 21.203125 21.941406 C 21.210938 21.953125 21.222656 21.960938 21.234375 21.972656 C 19.75 22.289062 18.160156 22.375 16.507812 22.375 C 16.089844 22.375 15.671875 22.355469 15.265625 22.320312 C 15.269531 22.316406 15.269531 22.3125 15.273438 22.308594 C 14.578125 22.28125 13.546875 21.988281 12.730469 21.542969 C 11.914062 21.097656 11.402344 20.214844 11.011719 19.300781 C 10.621094 18.382812 10.304688 17.132812 10.476562 16.40625 C 10.472656 16.402344 10.46875 16.402344 10.464844 16.402344 C 9.296875 16.226562 8.761719 14.824219 9.136719 14.058594 C 9.511719 13.292969 10.535156 12.902344 11.277344 13.234375 C 11.40625 13.292969 11.519531 13.363281 11.621094 13.4375 C 11.609375 13.417969 11.59375 13.398438 11.578125 13.375 C 11.875 13.570312 12.121094 14.023438 12.238281 14.363281 C 12.414062 14.265625 12.589844 14.175781 12.757812 14.101562 C 13.488281 13.757812 14.941406 13.089844 18.070312 12.996094 C 21.144531 12.90625 22.535156 13.304688 23.789062 13.820312 C 23.847656 13.535156 23.9375 13.308594 24.214844 13.089844 C 24.480469 12.886719 24.941406 12.625 25.472656 12.644531 C 25.730469 12.65625 26.007812 12.742188 26.320312 12.925781 C 26.921875 13.28125 27.027344 13.953125 27.035156 14.414062 C 27.046875 14.878906 26.605469 15.605469 26.296875 15.824219 Z M 24.804688 25.839844 C 25.121094 26.175781 25.257812 26.691406 25.207031 27.386719 C 25.152344 28.082031 24.4375 28.75 24.351562 28.847656 C 24.347656 28.851562 24.339844 28.855469 24.335938 28.863281 C 24.328125 28.863281 24.324219 28.863281 24.316406 28.859375 C 24.015625 29.136719 23.375 29.617188 22.519531 29.617188 C 21.324219 29.617188 20.996094 29.257812 20.710938 28.957031 C 20.699219 28.960938 20.6875 28.964844 20.675781 28.96875 C 20.507812 28.789062 20.300781 28.460938 20.273438 27.953125 C 20.242188 27.390625 20.453125 26.992188 20.574219 26.839844 C 21.023438 26.804688 21.480469 26.671875 22.089844 26.171875 C 22.699219 25.671875 22.722656 24.789062 22.722656 24.789062 C 23.914062 24.886719 24.488281 25.503906 24.804688 25.839844 " fill-opacity="1" fill-rule="nonzero"/></g><path fill="#333333" d="M 12.105469 13.84375 C 11.789062 13.339844 11.160156 12.996094 10.46875 13.050781 C 10.414062 13.054688 10.414062 13.136719 10.46875 13.132812 C 10.984375 13.097656 11.507812 13.34375 11.847656 13.730469 C 12.007812 13.910156 12.027344 14.007812 12.117188 14.066406 C 12.15625 14.09375 12.234375 14.046875 12.105469 13.84375 " fill-opacity="1" fill-rule="nonzero"/><path fill="#333333" d="M 13.515625 7.328125 C 10.824219 8.363281 10.085938 11.316406 11.394531 13.089844 C 11.429688 13.136719 11.511719 13.09375 11.476562 13.039062 C 10.144531 11.121094 11.0625 8.394531 13.523438 7.371094 C 13.550781 7.359375 13.539062 7.320312 13.515625 7.328125 " fill-opacity="1" fill-rule="nonzero"/><path fill="#333333" d="M 24.300781 7.578125 C 23.058594 6.605469 20.675781 6.328125 19.105469 6.269531 C 17.742188 6.222656 16.949219 6.316406 15.933594 6.472656 C 15.90625 6.476562 15.917969 6.515625 15.945312 6.511719 C 18.476562 6.160156 22.308594 6.378906 23.96875 7.476562 C 24.6875 7.949219 25.117188 8.566406 25.300781 9.390625 C 25.527344 10.40625 25.289062 11.367188 25.007812 12.304688 C 24.992188 12.363281 25.074219 12.382812 25.097656 12.332031 C 25.761719 10.621094 25.753906 8.710938 24.300781 7.578125 " fill-opacity="1" fill-rule="nonzero"/><path fill="#333333" d="M 17.898438 4.316406 C 17.367188 4.621094 16.6875 5.339844 16.34375 6.273438 C 16.328125 6.308594 16.390625 6.335938 16.40625 6.300781 C 16.855469 5.238281 17.503906 4.71875 17.929688 4.363281 C 17.953125 4.339844 17.921875 4.300781 17.898438 4.316406 " fill-opacity="1" fill-rule="nonzero"/><path fill="#333333" d="M 18.460938 4.070312 C 18.433594 4.082031 18.445312 4.128906 18.476562 4.117188 C 19.148438 3.890625 19.988281 5.046875 20.289062 5.691406 C 20.433594 5.992188 20.464844 6.160156 20.554688 6.335938 C 20.5625 6.355469 20.597656 6.347656 20.59375 6.324219 C 20.554688 5.679688 19.398438 3.738281 18.460938 4.070312 " fill-opacity="1" fill-rule="nonzero"/><path fill="#333333" d="M 11.632812 10.816406 C 11.597656 10.90625 11.578125 11.003906 11.578125 11.023438 C 11.574219 11.101562 11.648438 11.148438 11.722656 11.136719 C 11.804688 11.125 11.886719 11.050781 11.953125 11 C 12.175781 10.824219 12.34375 10.609375 12.515625 10.386719 C 12.566406 10.316406 12.632812 10.246094 12.636719 10.160156 C 12.660156 9.773438 11.886719 10.171875 11.632812 10.816406 " fill-opacity="1" fill-rule="nonzero"/><path fill="#333333" d="M 24.03125 10.644531 C 23.804688 10.09375 23.117188 9.601562 23.074219 9.949219 C 23.066406 10.027344 23.109375 10.097656 23.144531 10.160156 C 23.292969 10.425781 23.542969 10.839844 23.84375 10.882812 C 23.988281 10.945312 24.109375 10.835938 24.03125 10.644531 " fill-opacity="1" fill-rule="nonzero"/><path fill="#333333" d="M 13.847656 11.433594 C 13.472656 11.050781 12.777344 11.171875 12.757812 11.964844 C 12.734375 12.820312 13.40625 13.148438 13.820312 12.804688 C 14.222656 12.511719 14.195312 11.789062 13.847656 11.433594 " fill-opacity="1" fill-rule="nonzero"/><path fill="#333333" d="M 22.214844 11.308594 C 22.035156 11.480469 21.949219 11.726562 21.972656 11.972656 C 22.039062 12.8125 23.019531 13.253906 23.351562 12.234375 C 23.691406 11.179688 22.71875 10.8125 22.214844 11.308594 " fill-opacity="1" fill-rule="nonzero"/><path fill="#333333" d="M 16.699219 11.667969 C 16.675781 11.675781 16.695312 11.722656 16.71875 11.710938 C 17.457031 11.417969 18.191406 11.429688 18.96875 11.554688 C 19.183594 11.589844 18.140625 11.050781 16.699219 11.667969 " fill-opacity="1" fill-rule="nonzero"/><path fill="#333333" d="M 19.011719 12.3125 C 18.652344 12.191406 17.746094 12.152344 16.800781 12.414062 C 16.773438 12.421875 16.785156 12.464844 16.8125 12.457031 C 17.886719 12.175781 18.75 12.359375 19.003906 12.371094 C 19.039062 12.371094 19.042969 12.320312 19.011719 12.3125 " fill-opacity="1" fill-rule="nonzero"/><path fill="#333333" d="M 24.335938 14.871094 C 24.171875 14.570312 23.722656 14.542969 23.363281 14.546875 C 22.539062 14.5625 21.84375 14.863281 21.1875 15.246094 C 21.117188 15.285156 21.179688 15.390625 21.25 15.355469 C 21.742188 15.105469 22.359375 14.871094 22.898438 14.792969 C 23.183594 14.753906 23.875 14.722656 24.074219 14.921875 C 24.226562 15.078125 24.113281 15.203125 23.917969 15.296875 C 23.90625 15.179688 23.808594 15.085938 23.6875 15.082031 C 23.277344 15.074219 23.363281 15.878906 24.085938 15.492188 C 24.394531 15.328125 24.449219 15.074219 24.335938 14.871094 " fill-opacity="1" fill-rule="nonzero"/><path fill="#333333" d="M 12.183594 16.292969 C 12.980469 16.5 12.871094 15.695312 12.476562 15.804688 C 12.359375 15.835938 12.285156 15.949219 12.304688 16.066406 C 12.089844 16.019531 11.949219 15.925781 12.0625 15.738281 C 12.210938 15.496094 12.890625 15.363281 13.175781 15.335938 C 13.71875 15.285156 14.371094 15.367188 14.90625 15.492188 C 14.988281 15.511719 15.023438 15.394531 14.945312 15.371094 C 14.214844 15.15625 13.46875 15.027344 12.667969 15.207031 C 12.3125 15.285156 11.886719 15.417969 11.796875 15.75 C 11.734375 15.972656 11.847656 16.207031 12.183594 16.292969 " fill-opacity="1" fill-rule="nonzero"/><path fill="#333333" d="M 25.554688 15.015625 C 25.144531 14.304688 23.855469 13.773438 23.082031 13.519531 C 21.476562 13 19.824219 12.90625 18.070312 12.96875 C 18.050781 12.96875 18.050781 12.996094 18.070312 12.996094 C 18.617188 12.980469 19.167969 12.980469 19.71875 13.003906 C 21.636719 13.089844 24.535156 13.738281 25.503906 15.042969 C 25.527344 15.074219 25.574219 15.046875 25.554688 15.015625 " fill-opacity="1" fill-rule="nonzero"/><path fill="#333333" d="M 25.734375 16.929688 C 25.691406 18.117188 25.632812 19.589844 24.621094 20.507812 C 23.839844 21.210938 22.082031 21.730469 21.058594 21.957031 C 20.476562 22.089844 19.773438 22.203125 18.796875 22.285156 C 18.746094 22.289062 18.746094 22.367188 18.796875 22.367188 C 20.804688 22.300781 23.484375 21.523438 24.523438 20.710938 C 25.660156 19.816406 25.75 18.363281 25.78125 16.929688 C 25.78125 16.902344 25.734375 16.902344 25.734375 16.929688 " fill-opacity="1" fill-rule="nonzero"/><path fill="#333333" d="M 16.34375 22.367188 C 15.605469 22.296875 13.589844 22.328125 12.199219 21.078125 C 11.476562 20.429688 11.078125 19.476562 10.742188 18.503906 C 10.738281 18.488281 10.710938 18.496094 10.71875 18.511719 C 10.980469 19.324219 11.277344 20.292969 12.019531 21.03125 C 12.910156 21.925781 14.175781 22.277344 15.429688 22.398438 C 15.730469 22.425781 16.039062 22.449219 16.34375 22.445312 C 16.394531 22.441406 16.390625 22.371094 16.34375 22.367188 " fill-opacity="1" fill-rule="nonzero"/><path fill="#333333" d="M 13.441406 22.210938 C 13.160156 22.542969 12.773438 22.929688 12.378906 23.097656 C 11.847656 23.320312 11.816406 22.75 11.773438 22.160156 C 11.753906 21.855469 11.746094 21.546875 11.773438 21.242188 C 11.777344 21.226562 11.753906 21.226562 11.75 21.242188 C 11.691406 21.738281 11.675781 22.078125 11.730469 22.566406 C 11.757812 22.777344 11.785156 23.039062 11.953125 23.164062 C 12.289062 23.417969 12.960938 22.871094 13.234375 22.582031 C 13.386719 22.421875 13.417969 22.359375 13.484375 22.246094 C 13.5 22.21875 13.460938 22.1875 13.441406 22.210938 " fill-opacity="1" fill-rule="nonzero"/><path fill="#333333" d="M 24.90625 20.707031 C 24.886719 20.679688 24.847656 20.699219 24.855469 20.726562 C 24.902344 20.9375 24.976562 21.113281 24.988281 21.433594 C 25.003906 21.894531 24.867188 22.554688 24.433594 22.503906 C 24.171875 22.476562 23.445312 21.78125 23.261719 21.574219 C 23.253906 21.5625 23.238281 21.578125 23.246094 21.589844 C 23.457031 21.839844 24.074219 22.515625 24.394531 22.578125 C 25.105469 22.714844 25.238281 21.261719 24.90625 20.707031 " fill-opacity="1" fill-rule="nonzero"/><path fill="#333333" d="M 26.832031 13.363281 C 26.347656 12.472656 24.605469 12.1875 23.855469 13.554688 C 23.84375 13.570312 23.871094 13.582031 23.878906 13.566406 C 24.28125 12.839844 25.3125 12.421875 26.203125 12.914062 C 26.429688 13.039062 26.609375 13.210938 26.785156 13.398438 C 26.808594 13.421875 26.84375 13.390625 26.832031 13.363281 " fill-opacity="1" fill-rule="nonzero"/><path fill="#333333" d="M 27.035156 14.109375 C 27.035156 14.097656 27.011719 14.097656 27.015625 14.109375 C 27.03125 14.25 27.019531 14.386719 27 14.523438 C 26.878906 15.386719 26.304688 15.746094 26.109375 15.914062 C 26.09375 15.929688 26.113281 15.960938 26.132812 15.953125 C 26.496094 15.832031 26.984375 15.277344 27.058594 14.585938 C 27.078125 14.425781 27.0625 14.265625 27.035156 14.109375 " fill-opacity="1" fill-rule="nonzero"/><path fill="#333333" d="M 25.699219 13.761719 C 25.613281 13.730469 25.167969 13.855469 24.992188 14.316406 C 24.972656 14.363281 25.050781 14.382812 25.066406 14.335938 C 25.242188 13.921875 25.675781 13.84375 25.714844 13.8125 C 25.734375 13.796875 25.71875 13.769531 25.699219 13.761719 " fill-opacity="1" fill-rule="nonzero"/><path fill="#333333" d="M 15.171875 22.390625 C 14.285156 23.238281 13.761719 24.5625 14.332031 25.667969 C 14.339844 25.679688 14.359375 25.667969 14.351562 25.652344 C 14.035156 24.992188 14.074219 24.007812 14.75 23.050781 C 14.898438 22.839844 15.070312 22.648438 15.238281 22.457031 C 15.277344 22.410156 15.214844 22.347656 15.171875 22.390625 " fill-opacity="1" fill-rule="nonzero"/><path fill="#333333" d="M 17.730469 24.929688 C 17.515625 24.167969 16.503906 23.773438 16.351562 23.75 C 16.324219 23.746094 16.292969 23.777344 16.320312 23.800781 C 16.542969 23.988281 17.710938 24.292969 17.667969 25.359375 C 17.617188 26.550781 16.472656 27.183594 15.136719 26.484375 C 15.109375 26.46875 15.089844 26.507812 15.113281 26.523438 C 15.292969 26.621094 15.472656 26.714844 15.667969 26.773438 C 16.328125 26.976562 16.910156 26.824219 17.265625 26.5 C 17.703125 26.105469 17.867188 25.414062 17.730469 24.929688 " fill-opacity="1" fill-rule="nonzero"/><path fill="#333333" d="M 17.542969 25.382812 C 17.421875 25.367188 17.328125 25.4375 17.050781 25.394531 C 16.882812 25.371094 16.707031 25.316406 16.570312 25.214844 C 16.554688 25.199219 16.535156 25.222656 16.550781 25.234375 C 16.777344 25.414062 16.996094 25.515625 17.296875 25.5 C 17.382812 25.496094 17.488281 25.488281 17.554688 25.425781 C 17.566406 25.414062 17.5625 25.386719 17.542969 25.382812 " fill-opacity="1" fill-rule="nonzero"/><path fill="#333333" d="M 17.125 26.289062 C 16.914062 26.324219 16.578125 26.398438 16.246094 26.207031 C 16.210938 26.1875 16.179688 26.238281 16.214844 26.257812 C 16.578125 26.472656 16.945312 26.464844 17.152344 26.351562 C 17.1875 26.328125 17.164062 26.28125 17.125 26.289062 " fill-opacity="1" fill-rule="nonzero"/><path fill="#333333" d="M 22.746094 24.171875 C 22.59375 23.375 21.980469 22.542969 21.414062 22.074219 C 21.386719 22.050781 21.359375 22.085938 21.378906 22.109375 C 21.734375 22.554688 22.308594 23.078125 22.570312 23.894531 C 23.207031 25.882812 21.09375 27.398438 19.691406 26.535156 C 18.832031 26.007812 18.699219 24.851562 19.699219 24.011719 C 19.722656 23.996094 19.691406 23.964844 19.671875 23.984375 C 18.246094 25.164062 19.03125 26.699219 20.332031 26.863281 C 21.726562 27.039062 23.039062 25.722656 22.746094 24.171875 " fill-opacity="1" fill-rule="nonzero"/><path fill="#333333" d="M 20.101562 25.25 C 20.035156 25.257812 19.660156 25.503906 19.175781 25.402344 C 19.132812 25.390625 19.117188 25.457031 19.160156 25.464844 C 19.652344 25.578125 20.058594 25.386719 20.125 25.292969 C 20.136719 25.277344 20.121094 25.246094 20.101562 25.25 " fill-opacity="1" fill-rule="nonzero"/><path fill="#333333" d="M 20.648438 26.058594 C 20.582031 26.082031 20.230469 26.339844 19.753906 26.347656 C 19.710938 26.347656 19.710938 26.414062 19.753906 26.414062 C 20.191406 26.410156 20.566406 26.21875 20.667969 26.082031 C 20.675781 26.070312 20.664062 26.050781 20.648438 26.058594 " fill-opacity="1" fill-rule="nonzero"/><path fill="#333333" d="M 24.160156 23.476562 C 23.539062 22.34375 22.753906 22.40625 22.402344 23.082031 C 22.390625 23.105469 22.425781 23.125 22.4375 23.105469 C 22.726562 22.570312 23.328125 22.519531 23.796875 23.097656 C 23.90625 23.230469 23.992188 23.375 24.085938 23.515625 C 24.117188 23.5625 24.1875 23.523438 24.160156 23.476562 " fill-opacity="1" fill-rule="nonzero"/><path fill="#333333" d="M 27.207031 24.519531 C 27.1875 23.824219 26.5625 23.472656 25.742188 24.046875 C 25.707031 24.074219 25.738281 24.132812 25.78125 24.109375 C 26.050781 23.96875 26.328125 23.792969 26.648438 23.859375 C 27.144531 23.964844 27.175781 24.5625 27.09375 25.066406 C 27.085938 25.089844 27.125 25.101562 27.132812 25.074219 C 27.152344 24.953125 27.210938 24.757812 27.207031 24.519531 " fill-opacity="1" fill-rule="nonzero"/><path fill="#333333" d="M 29.339844 25.652344 C 29.078125 25.113281 28.609375 25.066406 28.367188 25.382812 C 28.277344 25.496094 28.234375 25.640625 28.191406 25.777344 C 28.183594 25.804688 28.222656 25.816406 28.234375 25.789062 C 28.320312 25.542969 28.484375 25.199219 28.804688 25.273438 C 29.15625 25.351562 29.273438 25.773438 29.367188 25.835938 C 29.382812 25.84375 29.398438 25.832031 29.398438 25.816406 C 29.402344 25.765625 29.363281 25.699219 29.339844 25.652344 " fill-opacity="1" fill-rule="nonzero"/><path fill="#333333" d="M 31.226562 24.375 C 31.191406 24.347656 30.738281 24.242188 30.535156 24.492188 C 30.378906 24.683594 30.441406 24.941406 30.566406 25.132812 C 30.582031 25.152344 30.613281 25.132812 30.601562 25.113281 C 30.398438 24.792969 30.5 24.441406 30.871094 24.417969 C 31.066406 24.410156 31.140625 24.46875 31.214844 24.445312 C 31.25 24.433594 31.25 24.394531 31.226562 24.375 " fill-opacity="1" fill-rule="nonzero"/><path fill="#333333" d="M 31.039062 23.3125 C 30.964844 23.296875 30.96875 23.316406 30.882812 23.339844 C 30.765625 23.371094 30.652344 23.332031 30.636719 23.238281 C 30.625 23.171875 30.664062 23.105469 30.695312 23.054688 C 30.710938 23.027344 30.671875 23.003906 30.65625 23.03125 C 30.476562 23.320312 30.667969 23.457031 30.851562 23.4375 C 31.050781 23.417969 31.085938 23.320312 31.039062 23.3125 " fill-opacity="1" fill-rule="nonzero"/><path fill="#333333" d="M 22.804688 24.03125 C 22.734375 24.0625 22.792969 24.164062 22.863281 24.132812 C 24.65625 23.328125 26.46875 24.964844 27.117188 25.363281 C 27.574219 25.640625 24.890625 23.078125 22.804688 24.03125 " fill-opacity="1" fill-rule="nonzero"/><path fill="#333333" d="M 31.371094 24.398438 C 30.828125 25.984375 29.203125 26.449219 28.039062 25.949219 C 28.019531 25.941406 28 25.96875 28.019531 25.980469 C 29.539062 26.679688 31.109375 25.742188 31.445312 24.417969 C 31.457031 24.371094 31.386719 24.351562 31.371094 24.398438 " fill-opacity="1" fill-rule="nonzero"/><path fill="#333333" d="M 31.363281 23.625 C 31.125 22.960938 30.421875 22.710938 29.726562 22.625 C 29.6875 22.621094 29.679688 22.6875 29.71875 22.695312 C 30.367188 22.820312 30.980469 22.992188 31.269531 23.585938 C 31.34375 23.734375 31.386719 23.902344 31.375 24.066406 C 31.371094 24.089844 31.402344 24.089844 31.40625 24.066406 C 31.421875 23.917969 31.414062 23.765625 31.363281 23.625 " fill-opacity="1" fill-rule="nonzero"/><g clip-path="url(#44325bcf91)"><path fill="#333333" d="M 32.605469 23.933594 C 32.171875 22.96875 31.089844 22.351562 29.945312 22.554688 C 29.914062 22.558594 29.929688 22.609375 29.960938 22.601562 C 31.695312 22.332031 33.300781 24.011719 32.542969 25.964844 C 32.527344 26.003906 32.589844 26.027344 32.609375 25.992188 C 32.929688 25.363281 32.894531 24.566406 32.605469 23.933594 " fill-opacity="1" fill-rule="nonzero"/></g><path fill="#333333" d="M 32.25 26.574219 C 32.007812 26.933594 31.613281 27.382812 31.183594 27.726562 C 30.257812 28.457031 29.441406 28.597656 28.96875 28.714844 C 28.933594 28.722656 28.941406 28.777344 28.976562 28.777344 C 29.703125 28.730469 31.359375 28.15625 32.28125 26.59375 C 32.292969 26.570312 32.261719 26.554688 32.25 26.574219 " fill-opacity="1" fill-rule="nonzero"/><g clip-path="url(#d6a1de7b5b)"><path fill="#333333" d="M 28.183594 28.808594 C 26.367188 29.109375 24.910156 28.894531 24.550781 28.886719 C 24.503906 28.882812 24.496094 28.953125 24.539062 28.964844 C 24.964844 29.0625 26.429688 29.183594 28.195312 28.863281 C 28.230469 28.855469 28.214844 28.804688 28.183594 28.808594 " fill-opacity="1" fill-rule="nonzero"/></g><path fill="#333333" d="M 22.863281 24.757812 C 22.8125 24.75 22.800781 24.839844 22.851562 24.847656 C 24.476562 25.085938 25.34375 26.195312 25.207031 27.386719 C 25.203125 27.410156 25.242188 27.414062 25.246094 27.390625 C 25.503906 26.394531 24.71875 25 22.863281 24.757812 " fill-opacity="1" fill-rule="nonzero"/><g clip-path="url(#467938e187)"><path fill="#333333" d="M 24.847656 28.195312 C 24.375 28.988281 23.3125 29.761719 21.808594 29.542969 C 21.769531 29.535156 21.75 29.59375 21.792969 29.605469 C 22.867188 29.878906 24.171875 29.421875 24.871094 28.210938 C 24.878906 28.195312 24.855469 28.183594 24.847656 28.195312 " fill-opacity="1" fill-rule="nonzero"/></g><g clip-path="url(#9650911fd7)"><path fill="#333333" d="M 21.179688 29.308594 C 20.945312 29.140625 20.710938 28.988281 20.507812 28.621094 C 20.257812 28.175781 20.203125 27.550781 20.488281 27.015625 C 20.5 26.992188 20.464844 26.96875 20.453125 26.992188 C 19.882812 28.019531 20.492188 29.109375 21.15625 29.363281 C 21.191406 29.378906 21.207031 29.328125 21.179688 29.308594 " fill-opacity="1" fill-rule="nonzero"/></g><path fill="#333333" d="M 22.984375 26.839844 C 22.738281 26.808594 22.382812 26.960938 22.175781 27.101562 C 21.777344 27.367188 21.566406 27.714844 21.464844 28.160156 C 21.460938 28.183594 21.492188 28.191406 21.496094 28.167969 C 21.5625 27.917969 21.707031 27.671875 21.878906 27.476562 C 22.304688 26.996094 22.769531 26.96875 22.992188 26.894531 C 23.027344 26.886719 23.015625 26.84375 22.984375 26.839844 " fill-opacity="1" fill-rule="nonzero"/><path fill="#333333" d="M 22.757812 27.519531 C 22.671875 27.453125 22.261719 27.398438 21.84375 27.628906 C 21.808594 27.648438 21.839844 27.703125 21.878906 27.683594 C 22.285156 27.464844 22.683594 27.585938 22.742188 27.574219 C 22.765625 27.570312 22.773438 27.535156 22.757812 27.519531 " fill-opacity="1" fill-rule="nonzero"/><path fill="#333333" d="M 23.695312 25.203125 C 23.691406 25.175781 23.65625 25.1875 23.660156 25.210938 C 23.6875 25.398438 23.644531 25.589844 23.566406 25.757812 C 23.453125 25.988281 23.328125 26.066406 23.214844 26.171875 C 23.199219 26.1875 23.214844 26.21875 23.238281 26.210938 C 23.5 26.105469 23.777344 25.683594 23.695312 25.203125 " fill-opacity="1" fill-rule="nonzero"/><path fill="#333333" d="M 24.746094 26.101562 C 24.734375 26.40625 24.570312 26.671875 24.332031 26.855469 C 24.296875 26.878906 24.324219 26.933594 24.363281 26.910156 C 24.644531 26.75 24.804688 26.417969 24.804688 26.101562 C 24.804688 26.0625 24.746094 26.0625 24.746094 26.101562 " fill-opacity="1" fill-rule="nonzero"/><path fill="#333333" d="M 14.03125 25.003906 C 12.714844 24.488281 11.242188 25.296875 10.972656 26.566406 C 10.964844 26.59375 11.003906 26.605469 11.015625 26.578125 C 11.507812 25.164062 12.871094 24.667969 14.003906 25.09375 C 14.0625 25.117188 14.085938 25.027344 14.03125 25.003906 " fill-opacity="1" fill-rule="nonzero"/><g clip-path="url(#ca09941c83)"><path fill="#333333" d="M 13.863281 29.566406 C 13.457031 29.503906 13.070312 29.464844 12.585938 29.214844 C 11.921875 28.871094 11.457031 28.285156 11.246094 27.828125 C 11.238281 27.8125 11.214844 27.828125 11.222656 27.84375 C 11.808594 29.207031 13.144531 29.683594 13.855469 29.609375 C 13.878906 29.605469 13.886719 29.570312 13.863281 29.566406 " fill-opacity="1" fill-rule="nonzero"/></g><g clip-path="url(#4855e7b165)"><path fill="#333333" d="M 15.992188 26.917969 C 15.980469 26.902344 15.957031 26.917969 15.964844 26.933594 C 16.1875 27.253906 16.320312 27.765625 16.246094 28.230469 C 16.125 28.96875 15.488281 29.621094 14.925781 29.570312 C 14.898438 29.570312 14.894531 29.609375 14.917969 29.617188 C 15.632812 29.875 16.988281 28.324219 15.992188 26.917969 " fill-opacity="1" fill-rule="nonzero"/></g><path fill="#333333" d="M 13.164062 27.03125 C 13.132812 27.039062 13.144531 27.082031 13.175781 27.078125 C 13.457031 27.035156 13.761719 27.117188 14.003906 27.265625 C 14.445312 27.53125 14.570312 27.9375 14.609375 28.382812 C 14.613281 28.410156 14.65625 28.421875 14.664062 28.390625 C 14.773438 27.796875 14.195312 26.871094 13.164062 27.03125 " fill-opacity="1" fill-rule="nonzero"/><path fill="#333333" d="M 13.609375 27.792969 C 13.578125 27.816406 13.621094 27.859375 13.648438 27.835938 C 13.867188 27.65625 14.09375 27.683594 14.148438 27.664062 C 14.265625 27.617188 13.929688 27.519531 13.609375 27.792969 " fill-opacity="1" fill-rule="nonzero"/><path fill="#333333" d="M 13.257812 25.09375 C 13.171875 25.128906 13.125 25.152344 13.054688 25.265625 C 12.878906 25.5625 12.992188 25.882812 13.179688 26.171875 C 13.199219 26.203125 13.253906 26.175781 13.230469 26.140625 C 12.953125 25.683594 13.035156 25.335938 13.285156 25.136719 C 13.304688 25.121094 13.28125 25.085938 13.257812 25.09375 " fill-opacity="1" fill-rule="nonzero"/><path fill="#333333" d="M 11.867188 26.738281 C 11.703125 26.628906 11.566406 26.410156 11.546875 26.160156 C 11.542969 26.082031 11.554688 26.011719 11.558594 25.9375 C 11.558594 25.90625 11.511719 25.890625 11.496094 25.917969 C 11.398438 26.128906 11.488281 26.546875 11.84375 26.773438 C 11.867188 26.789062 11.890625 26.753906 11.867188 26.738281 " fill-opacity="1" fill-rule="nonzero"/><g clip-path="url(#e384be6ba6)"><path fill="#333333" d="M 20.578125 28.988281 C 19.207031 29.335938 17.820312 29.492188 16.085938 29.0625 C 16.042969 29.050781 16.027344 29.117188 16.066406 29.125 C 17.6875 29.582031 19.453125 29.453125 20.597656 29.066406 C 20.648438 29.050781 20.628906 28.972656 20.578125 28.988281 " fill-opacity="1" fill-rule="nonzero"/></g><path fill="#333333" d="M 22.640625 19.914062 C 22.101562 20.699219 20.917969 21.027344 20.113281 20.734375 C 20.089844 20.726562 20.082031 20.761719 20.101562 20.769531 C 21.167969 21.183594 22.109375 20.832031 22.675781 19.933594 C 22.691406 19.914062 22.65625 19.894531 22.640625 19.914062 " fill-opacity="1" fill-rule="nonzero"/><g clip-path="url(#32800967a7)"><path fill="#333333" d="M 10.394531 16.332031 C 10.296875 16.25 9.78125 16.160156 9.394531 15.597656 C 8.957031 14.960938 9.007812 14.148438 9.371094 13.621094 C 9.382812 13.609375 9.359375 13.59375 9.351562 13.609375 C 8.675781 14.550781 8.992188 15.808594 10.015625 16.304688 C 10.101562 16.34375 10.277344 16.417969 10.375 16.402344 C 10.402344 16.394531 10.414062 16.351562 10.394531 16.332031 " fill-opacity="1" fill-rule="nonzero"/></g><path fill="#333333" d="M 11.183594 14.863281 C 11.089844 14.472656 10.660156 13.992188 10.1875 14.066406 C 10.132812 14.078125 10.15625 14.160156 10.210938 14.152344 C 10.417969 14.121094 10.613281 14.234375 10.753906 14.378906 C 10.941406 14.578125 10.960938 14.726562 11.117188 14.902344 C 11.144531 14.933594 11.195312 14.902344 11.183594 14.863281 " fill-opacity="1" fill-rule="nonzero"/><path fill="#333333" d="M 15.226562 13.320312 C 12.917969 13.585938 9.707031 15.261719 10.511719 17.476562 C 10.515625 17.492188 10.539062 17.484375 10.535156 17.46875 C 10.316406 16.8125 10.515625 15.863281 11.277344 15.125 C 12.253906 14.183594 13.90625 13.667969 15.234375 13.359375 C 15.253906 13.355469 15.25 13.316406 15.226562 13.320312 " fill-opacity="1" fill-rule="nonzero"/><path fill="#fefefe" d="M 13.339844 11.648438 C 13.21875 11.492188 12.980469 11.582031 12.949219 11.816406 C 12.921875 12.039062 13.183594 12.164062 13.328125 11.960938 C 13.390625 11.875 13.410156 11.738281 13.339844 11.648438 " fill-opacity="1" fill-rule="nonzero"/><path fill="#fefefe" d="M 22.683594 11.492188 C 22.582031 11.316406 22.304688 11.351562 22.253906 11.582031 C 22.1875 11.902344 22.574219 12.023438 22.671875 11.71875 C 22.710938 11.648438 22.722656 11.566406 22.683594 11.492188 " fill-opacity="1" fill-rule="nonzero"/><g fill="#333333" fill-opacity="1"><g transform="translate(63.241102, 24.229233)"><g><path d="M 15.109375 -8.75 L 15.125 -6.875 C 15.0625 -5.6875 14.914062 -4.6875 14.6875 -3.875 C 14.457031 -3.0625 14.007812 -2.320312 13.34375 -1.65625 C 12.238281 -0.550781 10.632812 0 8.53125 0 C 6.039062 0 4.332031 -0.328125 3.40625 -0.984375 C 2.476562 -1.640625 2.015625 -2.832031 2.015625 -4.5625 L 2.015625 -17.34375 L 8.765625 -17.34375 C 10.710938 -17.34375 12.238281 -16.789062 13.34375 -15.6875 C 14.238281 -14.789062 14.769531 -13.703125 14.9375 -12.421875 C 15.050781 -11.515625 15.109375 -10.289062 15.109375 -8.75 Z M 10.984375 -4.09375 C 11.296875 -4.46875 11.492188 -4.984375 11.578125 -5.640625 C 11.671875 -6.296875 11.71875 -7.320312 11.71875 -8.71875 C 11.71875 -10.113281 11.671875 -11.125 11.578125 -11.75 C 11.492188 -12.375 11.296875 -12.875 10.984375 -13.25 C 10.398438 -13.96875 9.554688 -14.328125 8.453125 -14.328125 L 5.40625 -14.328125 L 5.40625 -4.71875 C 5.40625 -4.070312 5.625 -3.625 6.0625 -3.375 C 6.5 -3.132812 7.28125 -3.015625 8.40625 -3.015625 C 9.539062 -3.015625 10.398438 -3.375 10.984375 -4.09375 Z M 10.984375 -4.09375 "/></g></g></g><g fill="#333333" fill-opacity="1"><g transform="translate(78.5576, 24.229233)"><g><path d="M 3.375 -19.21875 C 4.144531 -19.21875 4.644531 -19.097656 4.875 -18.859375 C 5.101562 -18.628906 5.21875 -18.132812 5.21875 -17.375 C 5.21875 -16.625 5.097656 -16.128906 4.859375 -15.890625 C 4.617188 -15.660156 4.117188 -15.546875 3.359375 -15.546875 C 2.609375 -15.546875 2.113281 -15.664062 1.875 -15.90625 C 1.644531 -16.144531 1.53125 -16.640625 1.53125 -17.390625 C 1.53125 -18.140625 1.644531 -18.628906 1.875 -18.859375 C 2.113281 -19.097656 2.613281 -19.21875 3.375 -19.21875 Z M 4.9375 0 L 1.78125 0 L 1.78125 -13.390625 L 4.9375 -13.390625 Z M 4.9375 0 "/></g></g></g><g fill="#333333" fill-opacity="1"><g transform="translate(84.523292, 24.229233)"><g><path d="M 12.5625 0 L 9.40625 0 L 9.40625 -8.890625 C 9.40625 -9.679688 9.238281 -10.222656 8.90625 -10.515625 C 8.582031 -10.816406 8.128906 -10.96875 7.546875 -10.96875 L 4.703125 -9.765625 L 4.703125 0 L 1.53125 0 L 1.53125 -13.90625 L 3.890625 -13.90625 L 4.625 -12.25 L 8.53125 -14.0625 C 9.613281 -14.0625 10.554688 -13.65625 11.359375 -12.84375 C 12.160156 -12.039062 12.5625 -10.867188 12.5625 -9.328125 Z M 12.5625 0 "/></g></g></g><g fill="#333333" fill-opacity="1"><g transform="translate(97.745594, 24.229233)"><g><path d="M 9.3125 -6.28125 L 9.3125 -7.546875 C 9.3125 -8.753906 9.132812 -9.671875 8.78125 -10.296875 C 8.4375 -10.929688 7.707031 -11.25 6.59375 -11.25 C 4.8125 -11.25 3.921875 -10.050781 3.921875 -7.65625 L 3.921875 -6.375 C 3.921875 -3.800781 4.8125 -2.515625 6.59375 -2.515625 C 7.75 -2.515625 8.503906 -2.941406 8.859375 -3.796875 C 9.160156 -4.484375 9.3125 -5.3125 9.3125 -6.28125 Z M 12.46875 -7.015625 C 12.46875 -4.015625 11.898438 -2 10.765625 -0.96875 C 9.804688 -0.09375 8.414062 0.34375 6.59375 0.34375 C 4.28125 0.34375 2.71875 -0.335938 1.90625 -1.703125 C 1.132812 -2.953125 0.75 -4.722656 0.75 -7.015625 C 0.75 -9.160156 1.132812 -10.84375 1.90625 -12.0625 C 2.75 -13.425781 4.285156 -14.109375 6.515625 -14.109375 C 8.742188 -14.109375 10.289062 -13.507812 11.15625 -12.3125 C 12.03125 -11.113281 12.46875 -9.347656 12.46875 -7.015625 Z M 12.46875 -7.015625 "/></g></g></g></svg>